<svg width="80" height="51" viewBox="0 0 80 51" fill="none" xmlns="http://www.w3.org/2000/svg">
<path d="M0 0L9.36886 -1.60904e-09C20.0057 -3.43585e-09 23.246 6.02284 23.246 11.0243C23.246 19.1604 17.4345 24.1266 8.77009 24.1266L4.14359e-09 24.1266L2.60637 20.3931L2.60637 3.73345L0 0ZM7.18514 22.7882L9.40408 22.7882C16.871 22.7882 18.3855 16.3074 18.3855 12.0105C18.3855 4.9662 15.2156 1.12708 9.65063 1.12708L7.18514 1.12708L7.18514 22.7882Z" fill="white"/>
<path d="M40.7282 12.577L40.7282 12.6122L29.4221 12.6122C29.8096 17.1557 32.2398 19.0577 34.9871 19.0577C37.3821 19.0577 39.4954 17.8601 40.0237 16.3808L40.5521 16.5922C39.2841 19.7973 36.7834 23.0377 32.592 23.0377C27.9781 23.0377 25.3717 18.9168 25.3717 14.6902C25.3717 10.1467 28.1894 4.93394 33.9305 4.93394C38.1218 4.93394 40.6929 7.75164 40.7282 12.5065L40.7634 12.577L40.7282 12.577ZM36.1846 11.5555L36.1846 11.2385C36.1846 7.46987 34.6701 5.99058 33.1204 5.99058C30.4436 5.99058 29.3517 9.19571 29.3517 11.309L29.3517 11.5555L36.1846 11.5555Z" fill="white"/>
<path d="M58.0636 12.577L58.0636 12.6122L46.7576 12.6122C47.145 17.1557 49.5753 19.0577 52.3226 19.0577C54.7176 19.0577 56.8309 17.8601 57.3592 16.3808L57.8875 16.5922C56.6196 19.7973 54.1188 23.0377 49.9275 23.0377C45.3135 23.0377 42.7072 18.9168 42.7072 14.6902C42.7072 10.1467 45.5249 4.93394 51.2659 4.93394C55.4573 4.93394 58.0284 7.75164 58.0636 12.5065L58.0988 12.577L58.0636 12.577ZM53.5201 11.5555L53.5201 11.2385C53.5201 7.46987 52.0056 5.99058 50.4558 5.99058C47.779 5.99058 46.6872 9.19571 46.6872 11.309L46.6872 11.5555L53.5201 11.5555Z" fill="white"/>
<path d="M66.6994 4.5465L66.6994 7.57553C67.9674 6.09624 69.5171 4.93394 72.0883 4.93394C76.6671 4.93394 79.1325 8.98438 79.1325 13.2109C79.1325 17.1205 76.7023 22.8616 69.975 22.8616C69.2354 22.8616 68.0026 22.7207 66.6994 22.4389L66.6994 27.5116L69.975 30.4486L69.975 30.5407L59.8665 30.5407L62.4729 27.5116L62.4729 9.26615L60.0778 6.55412L66.6994 4.5465ZM66.6994 8.52651L66.6994 18.9168C67.7209 20.0791 69.4115 21.3118 71.3486 21.3118C74.4481 21.3118 74.9764 18.8816 74.9764 16.4161C74.9764 10.9216 72.6518 7.54031 69.6228 7.54031C68.6718 7.54031 67.7561 7.8573 66.6994 8.52651Z" fill="white"/>
<path d="M10.506 27.4929L10.506 32.4943L17.2685 32.4943L16.4936 34.3962L10.506 34.3962L10.506 43.0607C10.506 46.4419 11.2809 47.3577 13.3589 47.3577C14.4155 47.3577 16.0357 46.8293 16.8106 45.3148L17.2333 45.8784C15.5426 48.7313 13.6407 50.1754 10.7878 50.1754C8.35749 50.1754 6.27944 48.7665 6.27944 44.7513L6.27944 34.7132L3.95483 32.4943L10.506 27.4929Z" fill="white"/>
<path d="M29.6284 49.7527L29.6284 46.7941C28.29 48.0973 25.8245 50.1049 23.4999 50.1049C21.0696 50.1049 19.2733 48.9074 19.2733 46.0545C19.2733 42.4619 23.5351 40.6304 29.6284 38.4819C29.6284 35.6642 29.5579 33.4805 26.6698 33.4805C23.8521 33.4805 22.1615 35.4529 20.3652 38.1297L20.1186 38.1297L20.1186 32.4943L34.6298 32.4943L33.8549 35.5233L33.8549 47.4633L33.8902 47.4633L36.4965 49.7527L29.6284 49.7527ZM29.6284 45.8431L29.6284 39.4681C24.0986 41.687 23.9225 43.2015 23.9225 44.8922C23.9225 46.5828 25.0848 47.3224 26.5641 47.3224C27.656 47.3224 28.7479 46.7589 29.6284 45.8431Z" fill="white"/>
<path d="M40.5181 46.7237L40.5181 29.4653L38.123 26.7532L44.7446 24.7456L44.7446 46.7237L47.351 49.7527L37.9117 49.7527L40.5181 46.7237Z" fill="white"/>
<path d="M55.5793 24.7456L55.5793 41.2292L61.426 35.2768L59.9115 32.4943L67.4841 32.4943L67.4841 32.7408L63.8211 34.8893L58.7492 39.4681L65.5821 47.2168L68.4351 49.4357L68.4351 49.7527L62.2009 49.7527L61.2147 48.203L55.5793 41.5461L55.5793 46.7237L58.1857 49.7527L48.7464 49.7527L51.3527 46.7237L51.3527 29.4653L48.9577 26.7532L55.5793 24.7456Z" fill="white"/>
</svg>
