<svg width="127" height="81" viewBox="0 0 127 81" fill="none" xmlns="http://www.w3.org/2000/svg">
<path d="M0.810303 0.920837H15.7182C32.6436 0.920837 37.7997 10.5045 37.7997 18.4628C37.7997 31.4091 28.5524 39.3114 14.7654 39.3114H0.810303L4.9576 33.3707V6.86156L0.810303 0.920837ZM12.2434 37.1817H15.7742C27.6557 37.1817 30.0656 26.8695 30.0656 20.032C30.0656 8.82313 25.0216 2.71426 16.1665 2.71426H12.2434V37.1817Z" fill="#F42323"/>
<path d="M65.6176 20.9335V20.9895H47.6272C48.2437 28.2193 52.1108 31.2457 56.4823 31.2457C60.2933 31.2457 63.656 29.3402 64.4967 26.9863L65.3373 27.3226C63.3197 32.4226 59.3406 37.5787 52.6713 37.5787C45.3294 37.5787 41.1821 31.0215 41.1821 24.2961C41.1821 17.0664 45.6657 8.77179 54.8009 8.77179C61.4703 8.77179 65.5615 13.2554 65.6176 20.8214L65.6736 20.9335H65.6176ZM58.3878 19.3082V18.8038C58.3878 12.807 55.9779 10.4531 53.5119 10.4531C49.2525 10.4531 47.5151 15.5532 47.5151 18.9159V19.3082H58.3878Z" fill="#F42323"/>
<path d="M93.202 20.9335V20.9895H75.2117C75.8282 28.2193 79.6952 31.2457 84.0667 31.2457C87.8778 31.2457 91.2404 29.3402 92.0811 26.9863L92.9218 27.3226C90.9042 32.4226 86.925 37.5787 80.2557 37.5787C72.9139 37.5787 68.7666 31.0215 68.7666 24.2961C68.7666 17.0664 73.2501 8.77179 82.3854 8.77179C89.0547 8.77179 93.146 13.2554 93.202 20.8214L93.258 20.9335H93.202ZM85.9723 19.3082V18.8038C85.9723 12.807 83.5623 10.4531 81.0964 10.4531C76.837 10.4531 75.0996 15.5532 75.0996 18.9159V19.3082H85.9723Z" fill="#F42323"/>
<path d="M106.943 8.1553V12.9751C108.961 10.6213 111.427 8.77179 115.518 8.77179C122.804 8.77179 126.727 15.2169 126.727 21.9423C126.727 28.1632 122.86 37.2985 112.156 37.2985C110.979 37.2985 109.017 37.0743 106.943 36.626V44.6978L112.156 49.371V49.5176H96.0708L100.218 44.6978V15.6653L96.4071 11.3498L106.943 8.1553ZM106.943 14.4883V31.0215C108.569 32.871 111.259 34.8325 114.341 34.8325C119.273 34.8325 120.114 30.9655 120.114 27.0423C120.114 18.2994 116.415 12.9191 111.595 12.9191C110.082 12.9191 108.625 13.4235 106.943 14.4883Z" fill="#F42323"/>
<path d="M17.5281 44.6679V52.6262H28.2886L27.0556 55.6526H17.5281V69.4396C17.5281 74.8199 18.761 76.277 22.0677 76.277C23.749 76.277 26.3271 75.4363 27.56 73.0264L28.2326 73.9231C25.5424 78.4628 22.516 80.7606 17.9764 80.7606C14.1093 80.7606 10.8027 78.5188 10.8027 72.1297V56.157L7.10376 52.6262L17.5281 44.6679Z" fill="#F42323"/>
<path d="M47.9559 80.088V75.3803C45.8262 77.454 41.9031 80.6485 38.2041 80.6485C34.3371 80.6485 31.4788 78.743 31.4788 74.2034C31.4788 68.4868 38.2602 65.5725 47.9559 62.1538C47.9559 57.6702 47.8438 54.1954 43.2481 54.1954C38.7646 54.1954 36.0744 57.3339 33.2162 61.5933H32.8239V52.6262H55.9142L54.6812 57.446V76.4452H54.7373L58.8846 80.088H47.9559ZM47.9559 73.8671V63.723C39.1569 67.2538 38.8767 69.6638 38.8767 72.3539C38.8767 75.044 40.7261 76.221 43.08 76.221C44.8174 76.221 46.5548 75.3243 47.9559 73.8671Z" fill="#F42323"/>
<path d="M65.2837 75.2682V47.8064L61.4727 43.4909L72.0091 40.2964V75.2682L76.1564 80.088H61.1364L65.2837 75.2682Z" fill="#F42323"/>
<path d="M89.2494 40.2964V66.5253L98.5528 57.0537L96.1429 52.6262H108.192V53.0185L102.364 56.4372L94.2934 63.723L105.166 76.0528L109.706 79.5837V80.088H99.7858L98.2165 77.6221L89.2494 67.0297V75.2682L93.3967 80.088H78.3767L82.524 75.2682V47.8064L78.713 43.4909L89.2494 40.2964Z" fill="#F42323"/>
</svg>
