<svg width="130" height="86" viewBox="0 0 130 86" fill="none" xmlns="http://www.w3.org/2000/svg">
<path d="M0.37793 6.22968L15.2692 5.52756C32.1759 4.73042 37.7777 14.0606 38.1525 22.0101C38.7622 34.942 29.8973 43.2711 16.1256 43.9204L2.186 44.5776L6.04891 38.4482L4.80042 11.9685L0.37793 6.22968ZM13.5061 41.9118L17.033 41.7455C28.9013 41.186 30.8228 30.7717 30.5008 23.9418C29.9729 12.7454 24.6468 6.88084 15.8016 7.29788L11.8828 7.48265L13.5061 41.9118Z" fill="#F42323"/>
<path d="M66.0558 23.1679L66.0584 23.2239L48.0881 24.0712C49.0444 31.2638 53.0497 34.1048 57.4163 33.8989C61.2231 33.7194 64.4923 31.6576 65.2212 29.2668L66.0768 29.5631C64.3016 34.7525 60.5697 40.0903 53.9078 40.4044C46.5741 40.7502 42.1226 34.3955 41.8058 27.6777C41.4653 20.4559 45.5533 11.9594 54.6784 11.5291C61.3403 11.215 65.6382 15.5009 66.0505 23.0559L66.1118 23.1652L66.0558 23.1679ZM58.7575 21.8849L58.7338 21.381C58.4513 15.3909 55.9332 13.1532 53.47 13.2693C49.2153 13.4699 47.7201 18.6461 47.8785 22.0051L47.8969 22.397L58.7575 21.8849Z" fill="#F42323"/>
<path d="M93.6096 21.8687L93.6123 21.9247L75.6419 22.772C76.5982 29.9647 80.6035 32.8056 84.9702 32.5997C88.777 32.4203 92.0462 30.3585 92.7751 27.9676L93.6306 28.2639C91.8555 33.4534 88.1235 38.7911 81.4616 39.1052C74.1279 39.451 69.6764 33.0964 69.3597 26.3785C69.0192 19.1568 73.1071 10.6602 82.2323 10.23C88.8942 9.91589 93.192 14.2018 93.6044 21.7568L93.6656 21.8661L93.6096 21.8687ZM86.3114 20.5858L86.2876 20.0819C86.0052 14.0918 83.4871 11.854 81.0238 11.9702C76.7692 12.1708 75.2739 17.347 75.4323 20.7059L75.4508 21.0978L86.3114 20.5858Z" fill="#F42323"/>
<path d="M106.734 8.45757L106.961 13.2721C108.866 10.8258 111.242 8.86222 115.328 8.66953C122.606 8.3264 126.828 14.5796 127.145 21.2975C127.438 27.5115 124.006 36.8188 113.313 37.3229C112.137 37.3784 110.167 37.2468 108.075 36.8966L108.455 44.9595L113.882 49.3821L113.888 49.5285L97.8214 50.286L101.737 45.2762L100.37 16.276L96.3598 12.1448L106.734 8.45757ZM107.032 14.7836L107.811 31.2984C109.522 33.0693 112.301 34.902 115.38 34.7568C120.307 34.5245 120.964 30.6221 120.779 26.7034C120.368 17.9701 116.419 12.77 111.605 12.997C110.093 13.0683 108.662 13.6407 107.032 14.7836Z" fill="#F42323"/>
<path d="M19.1374 49.1408L19.5122 57.0903L30.2608 56.5835L29.1718 59.6646L19.6548 60.1134L20.3041 73.885C20.5575 79.2593 21.8577 80.6568 25.1607 80.5011C26.8401 80.4219 29.3757 79.4607 30.4939 76.9954L31.2079 77.8595C28.7345 82.5208 25.8197 84.9586 21.2851 85.1724C17.4223 85.3545 14.0138 83.2709 13.7129 76.8889L12.9606 60.934L9.09949 57.5813L19.1374 49.1408Z" fill="#F42323"/>
<path d="M51.1997 83.0886L50.9779 78.3861C48.9483 80.5578 45.18 83.9335 41.4851 84.1077C37.6223 84.2899 34.6775 82.5211 34.4637 77.9865C34.1945 72.2763 40.8311 69.0458 50.355 65.1743C50.1439 60.6957 49.8682 57.23 45.2777 57.4465C40.7991 57.6576 38.2597 60.9194 35.6052 65.3086L35.2134 65.3271L34.791 56.3699L57.8558 55.2824L56.8512 60.155L57.746 79.133L57.802 79.1304L62.1162 82.5739L51.1997 83.0886ZM50.9067 76.8746L50.4289 66.7418C41.806 70.6831 41.6396 73.1035 41.7663 75.7907C41.893 78.4778 43.7958 79.5664 46.1471 79.4555C47.8825 79.3737 49.5757 78.3961 50.9067 76.8746Z" fill="#F42323"/>
<path d="M68.2813 77.4581L66.9879 50.0267L62.9779 45.8955L73.3521 42.2083L74.9992 77.1413L79.3689 81.7605L64.3656 82.4679L68.2813 77.4581Z" fill="#F42323"/>
<path d="M90.5733 41.3963L91.8086 67.5961L100.656 57.6969L98.0398 53.3878L110.076 52.8203L110.094 53.2122L104.433 56.9016L96.715 64.5594L108.156 76.3635L112.857 79.6766L112.881 80.1804L102.972 80.6476L101.288 78.2583L91.8323 68.0999L92.2203 76.3294L96.59 80.9485L81.5867 81.6559L85.5024 76.6461L84.2091 49.2147L80.199 45.0836L90.5733 41.3963Z" fill="#F42323"/>
</svg>
