<svg width="39" height="25" viewBox="0 0 39 25" fill="none" xmlns="http://www.w3.org/2000/svg">
<path d="M0.125 0L4.62399 -7.72674e-10C9.73187 -1.64992e-09 11.2879 2.89221 11.2879 5.29392C11.2879 9.20094 8.49718 11.5857 4.33646 11.5857L0.125 11.5857L1.3766 9.79291L1.3766 1.79283L0.125 0ZM3.57535 10.943L4.6409 10.943C8.22657 10.943 8.95385 7.83095 8.95385 5.7675C8.95385 2.3848 7.43163 0.541232 4.7593 0.541232L3.57535 0.541232L3.57535 10.943Z" fill="black"/>
<path d="M19.6829 6.03954L19.6829 6.05645L14.2537 6.05645C14.4398 8.23829 15.6068 9.15162 16.926 9.15162C18.0762 9.15162 19.091 8.57656 19.3447 7.8662L19.5984 7.96768C18.9895 9.50681 17.7886 11.0628 15.7759 11.0628C13.5603 11.0628 12.3087 9.08397 12.3087 7.05435C12.3087 4.87251 13.6617 2.36931 16.4186 2.36931C18.4314 2.36931 19.666 3.72239 19.6829 6.00571L19.6999 6.03954L19.6829 6.03954ZM17.5011 5.54905L17.5011 5.39683C17.5011 3.58708 16.7738 2.87672 16.0296 2.87672C14.7442 2.87672 14.2199 4.41584 14.2199 5.43065L14.2199 5.54905L17.5011 5.54905Z" fill="black"/>
<path d="M28.0076 6.03954L28.0076 6.05645L22.5783 6.05645C22.7644 8.23829 23.9314 9.15162 25.2507 9.15162C26.4008 9.15162 27.4156 8.57656 27.6693 7.8662L27.923 7.96768C27.3141 9.50681 26.1132 11.0628 24.1005 11.0628C21.8849 11.0628 20.6333 9.08397 20.6333 7.05435C20.6333 4.87251 21.9864 2.36931 24.7433 2.36931C26.756 2.36931 27.9906 3.72239 28.0076 6.00571L28.0245 6.03954L28.0076 6.03954ZM25.8257 5.54905L25.8257 5.39683C25.8257 3.58708 25.0984 2.87672 24.3542 2.87672C23.0688 2.87672 22.5445 4.41584 22.5445 5.43065L22.5445 5.54905L25.8257 5.54905Z" fill="black"/>
<path d="M32.1545 2.18326L32.1545 3.63782C32.7634 2.92746 33.5076 2.36931 34.7423 2.36931C36.9411 2.36931 38.125 4.31436 38.125 6.34398C38.125 8.22138 36.958 10.9783 33.7275 10.9783C33.3723 10.9783 32.7803 10.9106 32.1545 10.7753L32.1545 13.2113L33.7275 14.6216L33.7275 14.6658L28.8733 14.6658L30.1249 13.2113L30.1249 4.44967L28.9748 3.14733L32.1545 2.18326ZM32.1545 4.09449L32.1545 9.08397C32.645 9.64211 33.4569 10.2341 34.3871 10.2341C35.8755 10.2341 36.1292 9.06706 36.1292 7.88311C36.1292 5.24461 35.0129 3.62091 33.5584 3.62091C33.1017 3.62091 32.6619 3.77313 32.1545 4.09449Z" fill="black"/>
<path d="M5.17008 13.2023L5.17008 15.604L8.41747 15.604L8.04538 16.5173L5.17008 16.5173L5.17008 20.678C5.17008 22.3017 5.54218 22.7415 6.54007 22.7415C7.04748 22.7415 7.8255 22.4878 8.1976 21.7605L8.40056 22.0311C7.58871 23.4011 6.67538 24.0946 5.30539 24.0946C4.13836 24.0946 3.14046 23.418 3.14046 21.4899L3.14046 16.6695L2.02417 15.604L5.17008 13.2023Z" fill="black"/>
<path d="M14.3528 23.8916L14.3528 22.4709C13.7101 23.0967 12.5261 24.0607 11.4098 24.0607C10.2428 24.0607 9.38022 23.4857 9.38022 22.1157C9.38022 20.3905 11.4268 19.511 14.3528 18.4793C14.3528 17.1262 14.319 16.0776 12.9321 16.0776C11.579 16.0776 10.7671 17.0247 9.90454 18.3101L9.78614 18.3101L9.78614 15.604L16.7545 15.604L16.3824 17.0585L16.3824 22.7922L16.3993 22.7922L17.6509 23.8916L14.3528 23.8916ZM14.3528 22.0142L14.3528 18.9529C11.6974 20.0184 11.6128 20.7457 11.6128 21.5575C11.6128 22.3694 12.1709 22.7246 12.8813 22.7246C13.4056 22.7246 13.93 22.4539 14.3528 22.0142Z" fill="black"/>
<path d="M19.5821 22.437L19.5821 14.1494L18.432 12.8471L21.6117 11.883L21.6117 22.437L22.8633 23.8916L18.3305 23.8916L19.5821 22.437Z" fill="black"/>
<path d="M26.8146 11.883L26.8146 19.7985L29.6222 16.9401L28.895 15.604L32.5314 15.604L32.5314 15.7224L30.7724 16.7541L28.3368 18.9529L31.618 22.6738L32.988 23.7394L32.988 23.8916L29.9943 23.8916L29.5208 23.1474L26.8146 19.9507L26.8146 22.437L28.0662 23.8916L23.5334 23.8916L24.785 22.437L24.785 14.1494L23.6349 12.8471L26.8146 11.883Z" fill="black"/>
</svg>
